<mxfile host="65bd71144e">
    <diagram id="ESjYtATiIuVa_F0HiUzZ" name="Página-1">
        <mxGraphModel dx="1060" dy="470" grid="1" gridSize="10" guides="1" tooltips="1" connect="1" arrows="1" fold="1" page="1" pageScale="1" pageWidth="827" pageHeight="1169" math="0" shadow="0">
            <root>
                <mxCell id="0"/>
                <mxCell id="1" parent="0"/>
                <mxCell id="2" value="" style="whiteSpace=wrap;html=1;aspect=fixed;" vertex="1" parent="1">
                    <mxGeometry x="35" y="100" width="240" height="240" as="geometry"/>
                </mxCell>
                <mxCell id="3" value="PlanTelefonía" style="text;html=1;strokeColor=none;fillColor=none;align=center;verticalAlign=middle;whiteSpace=wrap;rounded=0;" vertex="1" parent="1">
                    <mxGeometry x="130" y="110" width="60" height="30" as="geometry"/>
                </mxCell>
                <mxCell id="9" value="PlanTelefonia ()" style="text;html=1;strokeColor=none;fillColor=none;align=center;verticalAlign=middle;whiteSpace=wrap;rounded=0;" vertex="1" parent="1">
                    <mxGeometry x="35" y="140" width="115" height="30" as="geometry"/>
                </mxCell>
                <mxCell id="10" value="" style="endArrow=none;html=1;exitX=0.012;exitY=0.147;exitDx=0;exitDy=0;exitPerimeter=0;entryX=0.994;entryY=0.141;entryDx=0;entryDy=0;entryPerimeter=0;" edge="1" parent="1" source="2" target="2">
                    <mxGeometry width="50" height="50" relative="1" as="geometry">
                        <mxPoint x="280" y="270" as="sourcePoint"/>
                        <mxPoint x="330" y="220" as="targetPoint"/>
                    </mxGeometry>
                </mxCell>
                <mxCell id="11" value="agregarNumerocelular(num:NumeroCelular)" style="text;html=1;strokeColor=none;fillColor=none;align=center;verticalAlign=middle;whiteSpace=wrap;rounded=0;" vertex="1" parent="1">
                    <mxGeometry x="102.5" y="160" width="115" height="30" as="geometry"/>
                </mxCell>
                <mxCell id="12" value="CalcularPago()" style="text;html=1;strokeColor=none;fillColor=none;align=center;verticalAlign=middle;whiteSpace=wrap;rounded=0;" vertex="1" parent="1">
                    <mxGeometry x="35" y="190" width="115" height="30" as="geometry"/>
                </mxCell>
                <mxCell id="13" value="getOperador()" style="text;html=1;strokeColor=none;fillColor=none;align=center;verticalAlign=middle;whiteSpace=wrap;rounded=0;" vertex="1" parent="1">
                    <mxGeometry x="35" y="220" width="115" height="30" as="geometry"/>
                </mxCell>
                <mxCell id="15" value="" style="whiteSpace=wrap;html=1;aspect=fixed;" vertex="1" parent="1">
                    <mxGeometry x="385" y="110" width="240" height="240" as="geometry"/>
                </mxCell>
                <mxCell id="16" value="NumeroCelular" style="text;html=1;strokeColor=none;fillColor=none;align=center;verticalAlign=middle;whiteSpace=wrap;rounded=0;" vertex="1" parent="1">
                    <mxGeometry x="475" y="110" width="60" height="30" as="geometry"/>
                </mxCell>
                <mxCell id="17" value="Numero : String" style="text;html=1;strokeColor=none;fillColor=none;align=center;verticalAlign=middle;whiteSpace=wrap;rounded=0;" vertex="1" parent="1">
                    <mxGeometry x="380" y="150" width="115" height="30" as="geometry"/>
                </mxCell>
                <mxCell id="18" value="" style="endArrow=none;html=1;exitX=0.012;exitY=0.147;exitDx=0;exitDy=0;exitPerimeter=0;entryX=0.994;entryY=0.141;entryDx=0;entryDy=0;entryPerimeter=0;" edge="1" parent="1" source="15" target="15">
                    <mxGeometry width="50" height="50" relative="1" as="geometry">
                        <mxPoint x="625" y="270" as="sourcePoint"/>
                        <mxPoint x="675" y="220" as="targetPoint"/>
                    </mxGeometry>
                </mxCell>
                <mxCell id="19" value="NumeroTelefono(pNumero: String)" style="text;html=1;strokeColor=none;fillColor=none;align=center;verticalAlign=middle;whiteSpace=wrap;rounded=0;" vertex="1" parent="1">
                    <mxGeometry x="380" y="180" width="220" height="30" as="geometry"/>
                </mxCell>
                <mxCell id="22" value="calcular()" style="text;html=1;strokeColor=none;fillColor=none;align=center;verticalAlign=middle;whiteSpace=wrap;rounded=0;" vertex="1" parent="1">
                    <mxGeometry x="315" y="200" width="220" height="30" as="geometry"/>
                </mxCell>
                <mxCell id="23" value="getNumero()" style="text;html=1;strokeColor=none;fillColor=none;align=center;verticalAlign=middle;whiteSpace=wrap;rounded=0;" vertex="1" parent="1">
                    <mxGeometry x="385" y="220" width="95" height="30" as="geometry"/>
                </mxCell>
                <mxCell id="25" value="" style="whiteSpace=wrap;html=1;aspect=fixed;" vertex="1" parent="1">
                    <mxGeometry x="702.5" y="100" width="240" height="240" as="geometry"/>
                </mxCell>
                <mxCell id="26" value="Operador" style="text;html=1;strokeColor=none;fillColor=none;align=center;verticalAlign=middle;whiteSpace=wrap;rounded=0;" vertex="1" parent="1">
                    <mxGeometry x="797.5" y="110" width="60" height="30" as="geometry"/>
                </mxCell>
                <mxCell id="27" value="Operador ()" style="text;html=1;strokeColor=none;fillColor=none;align=center;verticalAlign=middle;whiteSpace=wrap;rounded=0;" vertex="1" parent="1">
                    <mxGeometry x="702.5" y="140" width="115" height="30" as="geometry"/>
                </mxCell>
                <mxCell id="28" value="" style="endArrow=none;html=1;exitX=0.012;exitY=0.147;exitDx=0;exitDy=0;exitPerimeter=0;entryX=0.994;entryY=0.141;entryDx=0;entryDy=0;entryPerimeter=0;" edge="1" parent="1" source="25" target="25">
                    <mxGeometry width="50" height="50" relative="1" as="geometry">
                        <mxPoint x="947.5" y="270" as="sourcePoint"/>
                        <mxPoint x="997.5" y="220" as="targetPoint"/>
                    </mxGeometry>
                </mxCell>
                <mxCell id="29" value="Operador(pOperador)" style="text;html=1;strokeColor=none;fillColor=none;align=center;verticalAlign=middle;whiteSpace=wrap;rounded=0;" vertex="1" parent="1">
                    <mxGeometry x="662.5" y="170" width="220" height="30" as="geometry"/>
                </mxCell>
                <mxCell id="30" value="getOperador()" style="text;html=1;strokeColor=none;fillColor=none;align=center;verticalAlign=middle;whiteSpace=wrap;rounded=0;" vertex="1" parent="1">
                    <mxGeometry x="720" y="200" width="90" height="30" as="geometry"/>
                </mxCell>
                <mxCell id="33" value="" style="endArrow=classic;html=1;entryX=0;entryY=0.5;entryDx=0;entryDy=0;exitX=1;exitY=0.542;exitDx=0;exitDy=0;exitPerimeter=0;" edge="1" parent="1" source="2" target="15">
                    <mxGeometry width="50" height="50" relative="1" as="geometry">
                        <mxPoint x="480" y="260" as="sourcePoint"/>
                        <mxPoint x="530" y="210" as="targetPoint"/>
                    </mxGeometry>
                </mxCell>
                <mxCell id="34" value="" style="endArrow=classic;html=1;entryX=0;entryY=0.5;entryDx=0;entryDy=0;exitX=1;exitY=0.5;exitDx=0;exitDy=0;" edge="1" parent="1" target="25">
                    <mxGeometry width="50" height="50" relative="1" as="geometry">
                        <mxPoint x="625" y="225" as="sourcePoint"/>
                        <mxPoint x="395" y="235" as="targetPoint"/>
                    </mxGeometry>
                </mxCell>
            </root>
        </mxGraphModel>
    </diagram>
</mxfile>